<?xml version="1.0" encoding="UTF-8" standalone="no"?>
<!DOCTYPE svg PUBLIC "-//W3C//DTD SVG 1.1//EN"
 "http://www.w3.org/Graphics/SVG/1.1/DTD/svg11.dtd">
<!-- Generated by graphviz version 2.43.0 (0)
 -->
<!-- Title: G Pages: 1 -->
<svg width="1080pt" height="433pt"
 viewBox="0.00 0.00 1080.20 433.20" xmlns="http://www.w3.org/2000/svg" xmlns:xlink="http://www.w3.org/1999/xlink">
<g id="graph0" class="graph" transform="scale(1 1) rotate(0) translate(21.6 411.6)">
<title>G</title>
<polygon fill="#111111" stroke="transparent" points="-21.6,21.6 -21.6,-411.6 1058.6,-411.6 1058.6,21.6 -21.6,21.6"/>
<!-- app.js -->
<g id="node1" class="node">
<title>app.js</title>
<path fill="none" stroke="#c6c5fe" d="M164.83,-227C164.83,-227 126.17,-227 126.17,-227 122.33,-227 118.5,-223.17 118.5,-219.33 118.5,-219.33 118.5,-211.67 118.5,-211.67 118.5,-207.83 122.33,-204 126.17,-204 126.17,-204 164.83,-204 164.83,-204 168.67,-204 172.5,-207.83 172.5,-211.67 172.5,-211.67 172.5,-219.33 172.5,-219.33 172.5,-223.17 168.67,-227 164.83,-227"/>
<text text-anchor="middle" x="145.5" y="-211.8" font-family="Arial" font-size="14.00" fill="#c6c5fe">app.js</text>
</g>
<!-- routes/aiRoutes.js -->
<g id="node2" class="node">
<title>routes/aiRoutes.js</title>
<path fill="none" stroke="#c6c5fe" d="M373.33,-289C373.33,-289 263.67,-289 263.67,-289 259.83,-289 256,-285.17 256,-281.33 256,-281.33 256,-273.67 256,-273.67 256,-269.83 259.83,-266 263.67,-266 263.67,-266 373.33,-266 373.33,-266 377.17,-266 381,-269.83 381,-273.67 381,-273.67 381,-281.33 381,-281.33 381,-285.17 377.17,-289 373.33,-289"/>
<text text-anchor="middle" x="318.5" y="-273.8" font-family="Arial" font-size="14.00" fill="#c6c5fe">routes/aiRoutes.js</text>
</g>
<!-- app.js&#45;&gt;routes/aiRoutes.js -->
<g id="edge1" class="edge">
<title>app.js&#45;&gt;routes/aiRoutes.js</title>
<path fill="none" stroke="#757575" d="M164.28,-227.05C179.56,-236.5 202.47,-249.55 224,-257.5 231.04,-260.1 238.51,-262.4 246.03,-264.44"/>
<polygon fill="#757575" stroke="#757575" points="245.37,-267.88 255.93,-266.95 247.1,-261.1 245.37,-267.88"/>
</g>
<!-- routes/authRoutes.js -->
<g id="node3" class="node">
<title>routes/authRoutes.js</title>
<path fill="none" stroke="#c6c5fe" d="M380.83,-207C380.83,-207 256.17,-207 256.17,-207 252.33,-207 248.5,-203.17 248.5,-199.33 248.5,-199.33 248.5,-191.67 248.5,-191.67 248.5,-187.83 252.33,-184 256.17,-184 256.17,-184 380.83,-184 380.83,-184 384.67,-184 388.5,-187.83 388.5,-191.67 388.5,-191.67 388.5,-199.33 388.5,-199.33 388.5,-203.17 384.67,-207 380.83,-207"/>
<text text-anchor="middle" x="318.5" y="-191.8" font-family="Arial" font-size="14.00" fill="#c6c5fe">routes/authRoutes.js</text>
</g>
<!-- app.js&#45;&gt;routes/authRoutes.js -->
<g id="edge2" class="edge">
<title>app.js&#45;&gt;routes/authRoutes.js</title>
<path fill="none" stroke="#757575" d="M172.84,-212.42C190.47,-210.36 214.67,-207.53 238.24,-204.77"/>
<polygon fill="#757575" stroke="#757575" points="238.75,-208.23 248.28,-203.6 237.94,-201.28 238.75,-208.23"/>
</g>
<!-- routes/problemRoutes.js -->
<g id="node4" class="node">
<title>routes/problemRoutes.js</title>
<path fill="none" stroke="#c6c5fe" d="M392.83,-248C392.83,-248 244.17,-248 244.17,-248 240.33,-248 236.5,-244.17 236.5,-240.33 236.5,-240.33 236.5,-232.67 236.5,-232.67 236.5,-228.83 240.33,-225 244.17,-225 244.17,-225 392.83,-225 392.83,-225 396.67,-225 400.5,-228.83 400.5,-232.67 400.5,-232.67 400.5,-240.33 400.5,-240.33 400.5,-244.17 396.67,-248 392.83,-248"/>
<text text-anchor="middle" x="318.5" y="-232.8" font-family="Arial" font-size="14.00" fill="#c6c5fe">routes/problemRoutes.js</text>
</g>
<!-- app.js&#45;&gt;routes/problemRoutes.js -->
<g id="edge3" class="edge">
<title>app.js&#45;&gt;routes/problemRoutes.js</title>
<path fill="none" stroke="#757575" d="M172.84,-218.74C187.51,-220.54 206.73,-222.9 226.35,-225.31"/>
<polygon fill="#757575" stroke="#757575" points="225.96,-228.78 236.31,-226.53 226.81,-221.84 225.96,-228.78"/>
</g>
<!-- routes/submissionsRoutes.js -->
<g id="node5" class="node">
<title>routes/submissionsRoutes.js</title>
<path fill="none" stroke="#c6c5fe" d="M405.33,-125C405.33,-125 231.67,-125 231.67,-125 227.83,-125 224,-121.17 224,-117.33 224,-117.33 224,-109.67 224,-109.67 224,-105.83 227.83,-102 231.67,-102 231.67,-102 405.33,-102 405.33,-102 409.17,-102 413,-105.83 413,-109.67 413,-109.67 413,-117.33 413,-117.33 413,-121.17 409.17,-125 405.33,-125"/>
<text text-anchor="middle" x="318.5" y="-109.8" font-family="Arial" font-size="14.00" fill="#c6c5fe">routes/submissionsRoutes.js</text>
</g>
<!-- app.js&#45;&gt;routes/submissionsRoutes.js -->
<g id="edge4" class="edge">
<title>app.js&#45;&gt;routes/submissionsRoutes.js</title>
<path fill="none" stroke="#757575" d="M154.25,-203.77C166.71,-185.88 192.99,-152.02 224,-134.5 227.75,-132.38 231.69,-130.48 235.76,-128.77"/>
<polygon fill="#757575" stroke="#757575" points="237.31,-131.92 245.42,-125.11 234.83,-125.38 237.31,-131.92"/>
</g>
<!-- routes/userRoutes.js -->
<g id="node6" class="node">
<title>routes/userRoutes.js</title>
<path fill="none" stroke="#c6c5fe" d="M380.83,-166C380.83,-166 256.17,-166 256.17,-166 252.33,-166 248.5,-162.17 248.5,-158.33 248.5,-158.33 248.5,-150.67 248.5,-150.67 248.5,-146.83 252.33,-143 256.17,-143 256.17,-143 380.83,-143 380.83,-143 384.67,-143 388.5,-146.83 388.5,-150.67 388.5,-150.67 388.5,-158.33 388.5,-158.33 388.5,-162.17 384.67,-166 380.83,-166"/>
<text text-anchor="middle" x="318.5" y="-150.8" font-family="Arial" font-size="14.00" fill="#c6c5fe">routes/userRoutes.js</text>
</g>
<!-- app.js&#45;&gt;routes/userRoutes.js -->
<g id="edge5" class="edge">
<title>app.js&#45;&gt;routes/userRoutes.js</title>
<path fill="none" stroke="#757575" d="M165.62,-203.87C180.94,-195 203.22,-183.05 224,-175.5 230.96,-172.97 238.32,-170.69 245.74,-168.64"/>
<polygon fill="#757575" stroke="#757575" points="246.71,-172 255.5,-166.08 244.94,-165.23 246.71,-172"/>
</g>
<!-- utils/ApiError.js -->
<g id="node7" class="node">
<title>utils/ApiError.js</title>
<path fill="none" stroke="#cfffac" d="M853.83,-269C853.83,-269 762.17,-269 762.17,-269 758.33,-269 754.5,-265.17 754.5,-261.33 754.5,-261.33 754.5,-253.67 754.5,-253.67 754.5,-249.83 758.33,-246 762.17,-246 762.17,-246 853.83,-246 853.83,-246 857.67,-246 861.5,-249.83 861.5,-253.67 861.5,-253.67 861.5,-261.33 861.5,-261.33 861.5,-265.17 857.67,-269 853.83,-269"/>
<text text-anchor="middle" x="808" y="-253.8" font-family="Arial" font-size="14.00" fill="#cfffac">utils/ApiError.js</text>
</g>
<!-- app.js&#45;&gt;utils/ApiError.js -->
<g id="edge6" class="edge">
<title>app.js&#45;&gt;utils/ApiError.js</title>
<path fill="none" stroke="#757575" d="M153.33,-227.1C165.09,-245.85 191.08,-282.34 224,-298.5 314.66,-343.01 585.99,-361.15 678,-319.5 700.09,-309.5 693.15,-290.89 714,-278.5 723.26,-273 733.82,-268.94 744.43,-265.94"/>
<polygon fill="#757575" stroke="#757575" points="745.31,-269.32 754.14,-263.47 743.59,-262.54 745.31,-269.32"/>
</g>
<!-- utils/logger.js -->
<g id="node8" class="node">
<title>utils/logger.js</title>
<path fill="none" stroke="#cfffac" d="M358.33,-390C358.33,-390 278.67,-390 278.67,-390 274.83,-390 271,-386.17 271,-382.33 271,-382.33 271,-374.67 271,-374.67 271,-370.83 274.83,-367 278.67,-367 278.67,-367 358.33,-367 358.33,-367 362.17,-367 366,-370.83 366,-374.67 366,-374.67 366,-382.33 366,-382.33 366,-386.17 362.17,-390 358.33,-390"/>
<text text-anchor="middle" x="318.5" y="-374.8" font-family="Arial" font-size="14.00" fill="#cfffac">utils/logger.js</text>
</g>
<!-- app.js&#45;&gt;utils/logger.js -->
<g id="edge7" class="edge">
<title>app.js&#45;&gt;utils/logger.js</title>
<path fill="none" stroke="#757575" d="M149.7,-227.07C157.63,-253.51 180.73,-318.67 224,-352.5 234.68,-360.85 247.89,-366.52 260.98,-370.37"/>
<polygon fill="#757575" stroke="#757575" points="260.36,-373.83 270.92,-372.98 262.13,-367.06 260.36,-373.83"/>
</g>
<!-- controllers/aiController.js -->
<g id="node12" class="node">
<title>controllers/aiController.js</title>
<path fill="none" stroke="#c6c5fe" d="M637.83,-310C637.83,-310 489.17,-310 489.17,-310 485.33,-310 481.5,-306.17 481.5,-302.33 481.5,-302.33 481.5,-294.67 481.5,-294.67 481.5,-290.83 485.33,-287 489.17,-287 489.17,-287 637.83,-287 637.83,-287 641.67,-287 645.5,-290.83 645.5,-294.67 645.5,-294.67 645.5,-302.33 645.5,-302.33 645.5,-306.17 641.67,-310 637.83,-310"/>
<text text-anchor="middle" x="563.5" y="-294.8" font-family="Arial" font-size="14.00" fill="#c6c5fe">controllers/aiController.js</text>
</g>
<!-- routes/aiRoutes.js&#45;&gt;controllers/aiController.js -->
<g id="edge38" class="edge">
<title>routes/aiRoutes.js&#45;&gt;controllers/aiController.js</title>
<path fill="none" stroke="#757575" d="M381.13,-282.83C408.42,-285.18 441.08,-288.01 471.11,-290.6"/>
<polygon fill="#757575" stroke="#757575" points="470.92,-294.1 481.19,-291.47 471.53,-287.13 470.92,-294.1"/>
</g>
<!-- middlewares/authMiddleware.js -->
<g id="node25" class="node">
<title>middlewares/authMiddleware.js</title>
<path fill="none" stroke="#c6c5fe" d="M658.83,-228C658.83,-228 468.17,-228 468.17,-228 464.33,-228 460.5,-224.17 460.5,-220.33 460.5,-220.33 460.5,-212.67 460.5,-212.67 460.5,-208.83 464.33,-205 468.17,-205 468.17,-205 658.83,-205 658.83,-205 662.67,-205 666.5,-208.83 666.5,-212.67 666.5,-212.67 666.5,-220.33 666.5,-220.33 666.5,-224.17 662.67,-228 658.83,-228"/>
<text text-anchor="middle" x="563.5" y="-212.8" font-family="Arial" font-size="14.00" fill="#c6c5fe">middlewares/authMiddleware.js</text>
</g>
<!-- routes/aiRoutes.js&#45;&gt;middlewares/authMiddleware.js -->
<g id="edge39" class="edge">
<title>routes/aiRoutes.js&#45;&gt;middlewares/authMiddleware.js</title>
<path fill="none" stroke="#757575" d="M381.11,-267.04C391.9,-264.44 402.9,-261.29 413,-257.5 430.14,-251.07 431.78,-243.69 449,-237.5 456.44,-234.83 464.28,-232.48 472.23,-230.42"/>
<polygon fill="#757575" stroke="#757575" points="473.07,-233.82 481.95,-228.04 471.41,-227.02 473.07,-233.82"/>
</g>
<!-- controllers/authController.js -->
<g id="node16" class="node">
<title>controllers/authController.js</title>
<path fill="none" stroke="#c6c5fe" d="M645.83,-187C645.83,-187 481.17,-187 481.17,-187 477.33,-187 473.5,-183.17 473.5,-179.33 473.5,-179.33 473.5,-171.67 473.5,-171.67 473.5,-167.83 477.33,-164 481.17,-164 481.17,-164 645.83,-164 645.83,-164 649.67,-164 653.5,-167.83 653.5,-171.67 653.5,-171.67 653.5,-179.33 653.5,-179.33 653.5,-183.17 649.67,-187 645.83,-187"/>
<text text-anchor="middle" x="563.5" y="-171.8" font-family="Arial" font-size="14.00" fill="#c6c5fe">controllers/authController.js</text>
</g>
<!-- routes/authRoutes.js&#45;&gt;controllers/authController.js -->
<g id="edge40" class="edge">
<title>routes/authRoutes.js&#45;&gt;controllers/authController.js</title>
<path fill="none" stroke="#757575" d="M388.81,-189.8C411.86,-187.9 438.02,-185.75 462.9,-183.7"/>
<polygon fill="#757575" stroke="#757575" points="463.42,-187.17 473.1,-182.86 462.85,-180.19 463.42,-187.17"/>
</g>
<!-- routes/authRoutes.js&#45;&gt;middlewares/authMiddleware.js -->
<g id="edge41" class="edge">
<title>routes/authRoutes.js&#45;&gt;middlewares/authMiddleware.js</title>
<path fill="none" stroke="#757575" d="M388.81,-201.49C407.98,-203.15 429.28,-204.99 450.23,-206.8"/>
<polygon fill="#757575" stroke="#757575" points="450.2,-210.31 460.46,-207.68 450.8,-203.33 450.2,-210.31"/>
</g>
<!-- controllers/problemsController.js -->
<g id="node18" class="node">
<title>controllers/problemsController.js</title>
<path fill="none" stroke="#c6c5fe" d="M660.83,-269C660.83,-269 466.17,-269 466.17,-269 462.33,-269 458.5,-265.17 458.5,-261.33 458.5,-261.33 458.5,-253.67 458.5,-253.67 458.5,-249.83 462.33,-246 466.17,-246 466.17,-246 660.83,-246 660.83,-246 664.67,-246 668.5,-249.83 668.5,-253.67 668.5,-253.67 668.5,-261.33 668.5,-261.33 668.5,-265.17 664.67,-269 660.83,-269"/>
<text text-anchor="middle" x="563.5" y="-253.8" font-family="Arial" font-size="14.00" fill="#c6c5fe">controllers/problemsController.js</text>
</g>
<!-- routes/problemRoutes.js&#45;&gt;controllers/problemsController.js -->
<g id="edge42" class="edge">
<title>routes/problemRoutes.js&#45;&gt;controllers/problemsController.js</title>
<path fill="none" stroke="#757575" d="M400.75,-243.52C416.06,-244.85 432.34,-246.25 448.43,-247.64"/>
<polygon fill="#757575" stroke="#757575" points="448.16,-251.13 458.42,-248.51 448.76,-244.16 448.16,-251.13"/>
</g>
<!-- routes/problemRoutes.js&#45;&gt;middlewares/authMiddleware.js -->
<g id="edge43" class="edge">
<title>routes/problemRoutes.js&#45;&gt;middlewares/authMiddleware.js</title>
<path fill="none" stroke="#757575" d="M400.75,-229.81C416.52,-228.51 433.31,-227.13 449.87,-225.77"/>
<polygon fill="#757575" stroke="#757575" points="450.47,-229.23 460.15,-224.92 449.9,-222.26 450.47,-229.23"/>
</g>
<!-- controllers/submissionsController.js -->
<g id="node21" class="node">
<title>controllers/submissionsController.js</title>
<path fill="none" stroke="#c6c5fe" d="M670.33,-105C670.33,-105 456.67,-105 456.67,-105 452.83,-105 449,-101.17 449,-97.33 449,-97.33 449,-89.67 449,-89.67 449,-85.83 452.83,-82 456.67,-82 456.67,-82 670.33,-82 670.33,-82 674.17,-82 678,-85.83 678,-89.67 678,-89.67 678,-97.33 678,-97.33 678,-101.17 674.17,-105 670.33,-105"/>
<text text-anchor="middle" x="563.5" y="-89.8" font-family="Arial" font-size="14.00" fill="#c6c5fe">controllers/submissionsController.js</text>
</g>
<!-- routes/submissionsRoutes.js&#45;&gt;controllers/submissionsController.js -->
<g id="edge44" class="edge">
<title>routes/submissionsRoutes.js&#45;&gt;controllers/submissionsController.js</title>
<path fill="none" stroke="#757575" d="M413.1,-105.8C421.46,-105.11 430.01,-104.4 438.57,-103.7"/>
<polygon fill="#757575" stroke="#757575" points="438.94,-107.18 448.62,-102.87 438.37,-100.2 438.94,-107.18"/>
</g>
<!-- routes/submissionsRoutes.js&#45;&gt;middlewares/authMiddleware.js -->
<g id="edge45" class="edge">
<title>routes/submissionsRoutes.js&#45;&gt;middlewares/authMiddleware.js</title>
<path fill="none" stroke="#757575" d="M396.34,-125.12C402.26,-127.67 407.9,-130.76 413,-134.5 438.69,-153.35 422.88,-178.26 449,-196.5 450.9,-197.83 452.86,-199.07 454.87,-200.25"/>
<polygon fill="#757575" stroke="#757575" points="453.49,-203.47 463.98,-204.92 456.68,-197.24 453.49,-203.47"/>
</g>
<!-- controllers/userController.js -->
<g id="node24" class="node">
<title>controllers/userController.js</title>
<path fill="none" stroke="#c6c5fe" d="M645.83,-146C645.83,-146 481.17,-146 481.17,-146 477.33,-146 473.5,-142.17 473.5,-138.33 473.5,-138.33 473.5,-130.67 473.5,-130.67 473.5,-126.83 477.33,-123 481.17,-123 481.17,-123 645.83,-123 645.83,-123 649.67,-123 653.5,-126.83 653.5,-130.67 653.5,-130.67 653.5,-138.33 653.5,-138.33 653.5,-142.17 649.67,-146 645.83,-146"/>
<text text-anchor="middle" x="563.5" y="-130.8" font-family="Arial" font-size="14.00" fill="#c6c5fe">controllers/userController.js</text>
</g>
<!-- routes/userRoutes.js&#45;&gt;controllers/userController.js -->
<g id="edge46" class="edge">
<title>routes/userRoutes.js&#45;&gt;controllers/userController.js</title>
<path fill="none" stroke="#757575" d="M388.81,-148.8C411.86,-146.9 438.02,-144.75 462.9,-142.7"/>
<polygon fill="#757575" stroke="#757575" points="463.42,-146.17 473.1,-141.86 462.85,-139.19 463.42,-146.17"/>
</g>
<!-- config/db.js -->
<g id="node9" class="node">
<title>config/db.js</title>
<path fill="none" stroke="#c6c5fe" d="M180.33,-146C180.33,-146 110.67,-146 110.67,-146 106.83,-146 103,-142.17 103,-138.33 103,-138.33 103,-130.67 103,-130.67 103,-126.83 106.83,-123 110.67,-123 110.67,-123 180.33,-123 180.33,-123 184.17,-123 188,-126.83 188,-130.67 188,-130.67 188,-138.33 188,-138.33 188,-142.17 184.17,-146 180.33,-146"/>
<text text-anchor="middle" x="145.5" y="-130.8" font-family="Arial" font-size="14.00" fill="#c6c5fe">config/db.js</text>
</g>
<!-- seeds/seedAdmin.js -->
<g id="node10" class="node">
<title>seeds/seedAdmin.js</title>
<path fill="none" stroke="#c6c5fe" d="M624.83,-64C624.83,-64 502.17,-64 502.17,-64 498.33,-64 494.5,-60.17 494.5,-56.33 494.5,-56.33 494.5,-48.67 494.5,-48.67 494.5,-44.83 498.33,-41 502.17,-41 502.17,-41 624.83,-41 624.83,-41 628.67,-41 632.5,-44.83 632.5,-48.67 632.5,-48.67 632.5,-56.33 632.5,-56.33 632.5,-60.17 628.67,-64 624.83,-64"/>
<text text-anchor="middle" x="563.5" y="-48.8" font-family="Arial" font-size="14.00" fill="#c6c5fe">seeds/seedAdmin.js</text>
</g>
<!-- config/db.js&#45;&gt;seeds/seedAdmin.js -->
<g id="edge8" class="edge">
<title>config/db.js&#45;&gt;seeds/seedAdmin.js</title>
<path fill="none" stroke="#757575" d="M163.5,-122.82C178.66,-113.02 201.83,-99.53 224,-92.5 310.42,-65.09 414.65,-56.16 484.41,-53.41"/>
<polygon fill="#757575" stroke="#757575" points="484.58,-56.91 494.45,-53.05 484.33,-49.91 484.58,-56.91"/>
</g>
<!-- models/User.js -->
<g id="node17" class="node">
<title>models/User.js</title>
<path fill="none" stroke="#cfffac" d="M853.33,-105C853.33,-105 762.67,-105 762.67,-105 758.83,-105 755,-101.17 755,-97.33 755,-97.33 755,-89.67 755,-89.67 755,-85.83 758.83,-82 762.67,-82 762.67,-82 853.33,-82 853.33,-82 857.17,-82 861,-85.83 861,-89.67 861,-89.67 861,-97.33 861,-97.33 861,-101.17 857.17,-105 853.33,-105"/>
<text text-anchor="middle" x="808" y="-89.8" font-family="Arial" font-size="14.00" fill="#cfffac">models/User.js</text>
</g>
<!-- seeds/seedAdmin.js&#45;&gt;models/User.js -->
<g id="edge47" class="edge">
<title>seeds/seedAdmin.js&#45;&gt;models/User.js</title>
<path fill="none" stroke="#757575" d="M632.7,-64.03C667.89,-69.98 710.5,-77.19 744.79,-82.98"/>
<polygon fill="#757575" stroke="#757575" points="744.24,-86.44 754.68,-84.65 745.41,-79.54 744.24,-86.44"/>
</g>
<!-- config/redis.js -->
<g id="node11" class="node">
<title>config/redis.js</title>
<path fill="none" stroke="#cfffac" d="M1029.33,-23C1029.33,-23 945.67,-23 945.67,-23 941.83,-23 938,-19.17 938,-15.33 938,-15.33 938,-7.67 938,-7.67 938,-3.83 941.83,0 945.67,0 945.67,0 1029.33,0 1029.33,0 1033.17,0 1037,-3.83 1037,-7.67 1037,-7.67 1037,-15.33 1037,-15.33 1037,-19.17 1033.17,-23 1029.33,-23"/>
<text text-anchor="middle" x="987.5" y="-7.8" font-family="Arial" font-size="14.00" fill="#cfffac">config/redis.js</text>
</g>
<!-- controllers/aiController.js&#45;&gt;utils/ApiError.js -->
<g id="edge10" class="edge">
<title>controllers/aiController.js&#45;&gt;utils/ApiError.js</title>
<path fill="none" stroke="#757575" d="M632.7,-286.97C667.76,-281.04 710.19,-273.87 744.42,-268.08"/>
<polygon fill="#757575" stroke="#757575" points="745.02,-271.53 754.3,-266.41 743.85,-264.63 745.02,-271.53"/>
</g>
<!-- prompts/aiPrompts.js -->
<g id="node13" class="node">
<title>prompts/aiPrompts.js</title>
<path fill="none" stroke="#cfffac" d="M872.83,-351C872.83,-351 743.17,-351 743.17,-351 739.33,-351 735.5,-347.17 735.5,-343.33 735.5,-343.33 735.5,-335.67 735.5,-335.67 735.5,-331.83 739.33,-328 743.17,-328 743.17,-328 872.83,-328 872.83,-328 876.67,-328 880.5,-331.83 880.5,-335.67 880.5,-335.67 880.5,-343.33 880.5,-343.33 880.5,-347.17 876.67,-351 872.83,-351"/>
<text text-anchor="middle" x="808" y="-335.8" font-family="Arial" font-size="14.00" fill="#cfffac">prompts/aiPrompts.js</text>
</g>
<!-- controllers/aiController.js&#45;&gt;prompts/aiPrompts.js -->
<g id="edge9" class="edge">
<title>controllers/aiController.js&#45;&gt;prompts/aiPrompts.js</title>
<path fill="none" stroke="#757575" d="M632.7,-310.03C662.65,-315.1 698,-321.07 729,-326.31"/>
<polygon fill="#757575" stroke="#757575" points="728.45,-329.77 738.9,-327.99 729.62,-322.87 728.45,-329.77"/>
</g>
<!-- utils/ApiResponse.js -->
<g id="node14" class="node">
<title>utils/ApiResponse.js</title>
<path fill="none" stroke="#cfffac" d="M869.33,-187C869.33,-187 746.67,-187 746.67,-187 742.83,-187 739,-183.17 739,-179.33 739,-179.33 739,-171.67 739,-171.67 739,-167.83 742.83,-164 746.67,-164 746.67,-164 869.33,-164 869.33,-164 873.17,-164 877,-167.83 877,-171.67 877,-171.67 877,-179.33 877,-179.33 877,-183.17 873.17,-187 869.33,-187"/>
<text text-anchor="middle" x="808" y="-171.8" font-family="Arial" font-size="14.00" fill="#cfffac">utils/ApiResponse.js</text>
</g>
<!-- controllers/aiController.js&#45;&gt;utils/ApiResponse.js -->
<g id="edge11" class="edge">
<title>controllers/aiController.js&#45;&gt;utils/ApiResponse.js</title>
<path fill="none" stroke="#757575" d="M645.62,-294.32C657.31,-290.95 668.56,-285.92 678,-278.5 709.3,-253.92 683.29,-221.82 714,-196.5 718.66,-192.65 723.89,-189.48 729.42,-186.86"/>
<polygon fill="#757575" stroke="#757575" points="731.04,-189.98 738.97,-182.96 728.39,-183.5 731.04,-189.98"/>
</g>
<!-- utils/asyncHandler.js -->
<g id="node15" class="node">
<title>utils/asyncHandler.js</title>
<path fill="none" stroke="#cfffac" d="M870.33,-228C870.33,-228 745.67,-228 745.67,-228 741.83,-228 738,-224.17 738,-220.33 738,-220.33 738,-212.67 738,-212.67 738,-208.83 741.83,-205 745.67,-205 745.67,-205 870.33,-205 870.33,-205 874.17,-205 878,-208.83 878,-212.67 878,-212.67 878,-220.33 878,-220.33 878,-224.17 874.17,-228 870.33,-228"/>
<text text-anchor="middle" x="808" y="-212.8" font-family="Arial" font-size="14.00" fill="#cfffac">utils/asyncHandler.js</text>
</g>
<!-- controllers/aiController.js&#45;&gt;utils/asyncHandler.js -->
<g id="edge12" class="edge">
<title>controllers/aiController.js&#45;&gt;utils/asyncHandler.js</title>
<path fill="none" stroke="#757575" d="M645.61,-291.17C656.92,-288.18 668.06,-284.09 678,-278.5 699.14,-266.61 693.15,-249.89 714,-237.5 718.42,-234.87 723.14,-232.57 728.02,-230.56"/>
<polygon fill="#757575" stroke="#757575" points="729.4,-233.78 737.56,-227.04 726.97,-227.22 729.4,-233.78"/>
</g>
<!-- controllers/authController.js&#45;&gt;utils/ApiError.js -->
<g id="edge14" class="edge">
<title>controllers/authController.js&#45;&gt;utils/ApiError.js</title>
<path fill="none" stroke="#757575" d="M653.61,-185.99C662.14,-188.75 670.42,-192.19 678,-196.5 699.09,-208.48 693.09,-225.22 714,-237.5 723.17,-242.89 733.62,-246.83 744.11,-249.71"/>
<polygon fill="#757575" stroke="#757575" points="743.61,-253.19 754.15,-252.17 745.27,-246.39 743.61,-253.19"/>
</g>
<!-- controllers/authController.js&#45;&gt;utils/ApiResponse.js -->
<g id="edge15" class="edge">
<title>controllers/authController.js&#45;&gt;utils/ApiResponse.js</title>
<path fill="none" stroke="#757575" d="M653.76,-175.5C678.34,-175.5 704.81,-175.5 728.72,-175.5"/>
<polygon fill="#757575" stroke="#757575" points="728.79,-179 738.79,-175.5 728.79,-172 728.79,-179"/>
</g>
<!-- controllers/authController.js&#45;&gt;utils/asyncHandler.js -->
<g id="edge16" class="edge">
<title>controllers/authController.js&#45;&gt;utils/asyncHandler.js</title>
<path fill="none" stroke="#757575" d="M632.7,-187.03C662.65,-192.1 698,-198.07 729,-203.31"/>
<polygon fill="#757575" stroke="#757575" points="728.45,-206.77 738.9,-204.99 729.62,-199.87 728.45,-206.77"/>
</g>
<!-- controllers/authController.js&#45;&gt;models/User.js -->
<g id="edge13" class="edge">
<title>controllers/authController.js&#45;&gt;models/User.js</title>
<path fill="none" stroke="#757575" d="M653.65,-165.95C662.17,-163.24 670.44,-159.81 678,-155.5 699.36,-143.32 692.88,-126.08 714,-113.5 723.34,-107.94 734.03,-103.91 744.76,-101"/>
<polygon fill="#757575" stroke="#757575" points="745.68,-104.38 754.58,-98.63 744.04,-97.58 745.68,-104.38"/>
</g>
<!-- controllers/problemsController.js&#45;&gt;utils/ApiError.js -->
<g id="edge19" class="edge">
<title>controllers/problemsController.js&#45;&gt;utils/ApiError.js</title>
<path fill="none" stroke="#757575" d="M668.75,-257.5C694.35,-257.5 720.99,-257.5 743.97,-257.5"/>
<polygon fill="#757575" stroke="#757575" points="744.25,-261 754.25,-257.5 744.25,-254 744.25,-261"/>
</g>
<!-- controllers/problemsController.js&#45;&gt;utils/ApiResponse.js -->
<g id="edge20" class="edge">
<title>controllers/problemsController.js&#45;&gt;utils/ApiResponse.js</title>
<path fill="none" stroke="#757575" d="M659.15,-245.99C665.71,-243.64 672.07,-240.83 678,-237.5 699.14,-225.61 693.15,-208.89 714,-196.5 718.71,-193.7 723.76,-191.27 728.99,-189.17"/>
<polygon fill="#757575" stroke="#757575" points="730.32,-192.41 738.53,-185.72 727.94,-185.82 730.32,-192.41"/>
</g>
<!-- controllers/problemsController.js&#45;&gt;utils/asyncHandler.js -->
<g id="edge21" class="edge">
<title>controllers/problemsController.js&#45;&gt;utils/asyncHandler.js</title>
<path fill="none" stroke="#757575" d="M632.7,-245.97C662.65,-240.9 698,-234.93 729,-229.69"/>
<polygon fill="#757575" stroke="#757575" points="729.62,-233.13 738.9,-228.01 728.45,-226.23 729.62,-233.13"/>
</g>
<!-- models/Problem.js -->
<g id="node19" class="node">
<title>models/Problem.js</title>
<path fill="none" stroke="#cfffac" d="M864.83,-146C864.83,-146 751.17,-146 751.17,-146 747.33,-146 743.5,-142.17 743.5,-138.33 743.5,-138.33 743.5,-130.67 743.5,-130.67 743.5,-126.83 747.33,-123 751.17,-123 751.17,-123 864.83,-123 864.83,-123 868.67,-123 872.5,-126.83 872.5,-130.67 872.5,-130.67 872.5,-138.33 872.5,-138.33 872.5,-142.17 868.67,-146 864.83,-146"/>
<text text-anchor="middle" x="808" y="-130.8" font-family="Arial" font-size="14.00" fill="#cfffac">models/Problem.js</text>
</g>
<!-- controllers/problemsController.js&#45;&gt;models/Problem.js -->
<g id="edge17" class="edge">
<title>controllers/problemsController.js&#45;&gt;models/Problem.js</title>
<path fill="none" stroke="#757575" d="M664.55,-245.99C669.31,-243.59 673.83,-240.77 678,-237.5 709.3,-212.92 683.29,-180.82 714,-155.5 719.79,-150.72 726.46,-146.98 733.5,-144.05"/>
<polygon fill="#757575" stroke="#757575" points="735.05,-147.21 743.29,-140.55 732.69,-140.62 735.05,-147.21"/>
</g>
<!-- models/TestCase.js -->
<g id="node20" class="node">
<title>models/TestCase.js</title>
<path fill="none" stroke="#cfffac" d="M867.33,-310C867.33,-310 748.67,-310 748.67,-310 744.83,-310 741,-306.17 741,-302.33 741,-302.33 741,-294.67 741,-294.67 741,-290.83 744.83,-287 748.67,-287 748.67,-287 867.33,-287 867.33,-287 871.17,-287 875,-290.83 875,-294.67 875,-294.67 875,-302.33 875,-302.33 875,-306.17 871.17,-310 867.33,-310"/>
<text text-anchor="middle" x="808" y="-294.8" font-family="Arial" font-size="14.00" fill="#cfffac">models/TestCase.js</text>
</g>
<!-- controllers/problemsController.js&#45;&gt;models/TestCase.js -->
<g id="edge18" class="edge">
<title>controllers/problemsController.js&#45;&gt;models/TestCase.js</title>
<path fill="none" stroke="#757575" d="M632.7,-269.03C663.29,-274.2 699.49,-280.32 730.95,-285.64"/>
<polygon fill="#757575" stroke="#757575" points="730.55,-289.12 740.99,-287.34 731.71,-282.22 730.55,-289.12"/>
</g>
<!-- controllers/submissionsController.js&#45;&gt;utils/ApiError.js -->
<g id="edge25" class="edge">
<title>controllers/submissionsController.js&#45;&gt;utils/ApiError.js</title>
<path fill="none" stroke="#757575" d="M666.39,-105.1C670.52,-107.51 674.43,-110.29 678,-113.5 720.71,-151.83 672.01,-198.38 714,-237.5 722.41,-245.34 733.12,-250.39 744.27,-253.59"/>
<polygon fill="#757575" stroke="#757575" points="743.58,-257.03 754.12,-255.96 745.21,-250.22 743.58,-257.03"/>
</g>
<!-- controllers/submissionsController.js&#45;&gt;utils/ApiResponse.js -->
<g id="edge26" class="edge">
<title>controllers/submissionsController.js&#45;&gt;utils/ApiResponse.js</title>
<path fill="none" stroke="#757575" d="M659.48,-105.04C665.94,-107.39 672.18,-110.18 678,-113.5 699.36,-125.68 692.88,-142.92 714,-155.5 718.79,-158.35 723.93,-160.8 729.25,-162.9"/>
<polygon fill="#757575" stroke="#757575" points="728.39,-166.3 738.98,-166.32 730.71,-159.7 728.39,-166.3"/>
</g>
<!-- controllers/submissionsController.js&#45;&gt;utils/asyncHandler.js -->
<g id="edge27" class="edge">
<title>controllers/submissionsController.js&#45;&gt;utils/asyncHandler.js</title>
<path fill="none" stroke="#757575" d="M664.84,-105.12C669.49,-107.5 673.92,-110.28 678,-113.5 709.57,-138.41 682.9,-171.01 714,-196.5 718.31,-200.03 723.1,-202.98 728.17,-205.44"/>
<polygon fill="#757575" stroke="#757575" points="726.97,-208.73 737.55,-209.35 729.67,-202.27 726.97,-208.73"/>
</g>
<!-- controllers/submissionsController.js&#45;&gt;models/Problem.js -->
<g id="edge22" class="edge">
<title>controllers/submissionsController.js&#45;&gt;models/Problem.js</title>
<path fill="none" stroke="#757575" d="M632.7,-105.03C664.04,-110.33 701.29,-116.63 733.28,-122.04"/>
<polygon fill="#757575" stroke="#757575" points="733.03,-125.54 743.47,-123.76 734.2,-118.64 733.03,-125.54"/>
</g>
<!-- models/Submission.js -->
<g id="node22" class="node">
<title>models/Submission.js</title>
<path fill="none" stroke="#cfffac" d="M874.83,-64C874.83,-64 741.17,-64 741.17,-64 737.33,-64 733.5,-60.17 733.5,-56.33 733.5,-56.33 733.5,-48.67 733.5,-48.67 733.5,-44.83 737.33,-41 741.17,-41 741.17,-41 874.83,-41 874.83,-41 878.67,-41 882.5,-44.83 882.5,-48.67 882.5,-48.67 882.5,-56.33 882.5,-56.33 882.5,-60.17 878.67,-64 874.83,-64"/>
<text text-anchor="middle" x="808" y="-48.8" font-family="Arial" font-size="14.00" fill="#cfffac">models/Submission.js</text>
</g>
<!-- controllers/submissionsController.js&#45;&gt;models/Submission.js -->
<g id="edge23" class="edge">
<title>controllers/submissionsController.js&#45;&gt;models/Submission.js</title>
<path fill="none" stroke="#757575" d="M632.7,-81.97C662.65,-76.9 698,-70.93 729,-65.69"/>
<polygon fill="#757575" stroke="#757575" points="729.62,-69.13 738.9,-64.01 728.45,-62.23 729.62,-69.13"/>
</g>
<!-- queues/submissionQueue.js -->
<g id="node23" class="node">
<title>queues/submissionQueue.js</title>
<path fill="none" stroke="#c6c5fe" d="M894.33,-23C894.33,-23 721.67,-23 721.67,-23 717.83,-23 714,-19.17 714,-15.33 714,-15.33 714,-7.67 714,-7.67 714,-3.83 717.83,0 721.67,0 721.67,0 894.33,0 894.33,0 898.17,0 902,-3.83 902,-7.67 902,-7.67 902,-15.33 902,-15.33 902,-19.17 898.17,-23 894.33,-23"/>
<text text-anchor="middle" x="808" y="-7.8" font-family="Arial" font-size="14.00" fill="#c6c5fe">queues/submissionQueue.js</text>
</g>
<!-- controllers/submissionsController.js&#45;&gt;queues/submissionQueue.js -->
<g id="edge24" class="edge">
<title>controllers/submissionsController.js&#45;&gt;queues/submissionQueue.js</title>
<path fill="none" stroke="#757575" d="M656.84,-81.93C664.22,-79.37 671.38,-76.26 678,-72.5 699.09,-60.52 693.09,-43.78 714,-31.5 716.85,-29.83 719.82,-28.29 722.88,-26.89"/>
<polygon fill="#757575" stroke="#757575" points="724.34,-30.07 732.27,-23.04 721.69,-23.59 724.34,-30.07"/>
</g>
<!-- queues/submissionQueue.js&#45;&gt;config/redis.js -->
<g id="edge37" class="edge">
<title>queues/submissionQueue.js&#45;&gt;config/redis.js</title>
<path fill="none" stroke="#757575" d="M902.17,-11.5C910.76,-11.5 919.3,-11.5 927.46,-11.5"/>
<polygon fill="#757575" stroke="#757575" points="927.56,-15 937.56,-11.5 927.56,-8 927.56,-15"/>
</g>
<!-- controllers/userController.js&#45;&gt;utils/ApiError.js -->
<g id="edge31" class="edge">
<title>controllers/userController.js&#45;&gt;utils/ApiError.js</title>
<path fill="none" stroke="#757575" d="M653.74,-142.15C662.48,-145.43 670.77,-149.78 678,-155.5 709.2,-180.22 683.16,-212.33 714,-237.5 722.81,-244.69 733.6,-249.46 744.68,-252.59"/>
<polygon fill="#757575" stroke="#757575" points="743.9,-256 754.44,-254.94 745.54,-249.19 743.9,-256"/>
</g>
<!-- controllers/userController.js&#45;&gt;utils/ApiResponse.js -->
<g id="edge32" class="edge">
<title>controllers/userController.js&#45;&gt;utils/ApiResponse.js</title>
<path fill="none" stroke="#757575" d="M632.7,-146.03C662.65,-151.1 698,-157.07 729,-162.31"/>
<polygon fill="#757575" stroke="#757575" points="728.45,-165.77 738.9,-163.99 729.62,-158.87 728.45,-165.77"/>
</g>
<!-- controllers/userController.js&#45;&gt;utils/asyncHandler.js -->
<g id="edge33" class="edge">
<title>controllers/userController.js&#45;&gt;utils/asyncHandler.js</title>
<path fill="none" stroke="#757575" d="M653.61,-144.99C662.14,-147.75 670.42,-151.19 678,-155.5 699.09,-167.48 693.09,-184.22 714,-196.5 718.43,-199.1 723.15,-201.36 728.03,-203.33"/>
<polygon fill="#757575" stroke="#757575" points="726.98,-206.67 737.57,-206.77 729.35,-200.09 726.98,-206.67"/>
</g>
<!-- controllers/userController.js&#45;&gt;models/User.js -->
<g id="edge30" class="edge">
<title>controllers/userController.js&#45;&gt;models/User.js</title>
<path fill="none" stroke="#757575" d="M632.7,-122.97C667.89,-117.02 710.5,-109.81 744.79,-104.02"/>
<polygon fill="#757575" stroke="#757575" points="745.41,-107.46 754.68,-102.35 744.24,-100.56 745.41,-107.46"/>
</g>
<!-- controllers/userController.js&#45;&gt;models/Problem.js -->
<g id="edge28" class="edge">
<title>controllers/userController.js&#45;&gt;models/Problem.js</title>
<path fill="none" stroke="#757575" d="M653.76,-134.5C679.88,-134.5 708.12,-134.5 733.16,-134.5"/>
<polygon fill="#757575" stroke="#757575" points="733.32,-138 743.32,-134.5 733.32,-131 733.32,-138"/>
</g>
<!-- controllers/userController.js&#45;&gt;models/Submission.js -->
<g id="edge29" class="edge">
<title>controllers/userController.js&#45;&gt;models/Submission.js</title>
<path fill="none" stroke="#757575" d="M653.61,-124.01C662.14,-121.25 670.42,-117.81 678,-113.5 699.09,-101.52 693.09,-84.78 714,-72.5 717.18,-70.63 720.51,-68.94 723.94,-67.41"/>
<polygon fill="#757575" stroke="#757575" points="725.24,-70.66 733.23,-63.7 722.64,-64.16 725.24,-70.66"/>
</g>
<!-- middlewares/authMiddleware.js&#45;&gt;utils/ApiError.js -->
<g id="edge35" class="edge">
<title>middlewares/authMiddleware.js&#45;&gt;utils/ApiError.js</title>
<path fill="none" stroke="#757575" d="M632.7,-228.03C667.76,-233.96 710.19,-241.13 744.42,-246.92"/>
<polygon fill="#757575" stroke="#757575" points="743.85,-250.37 754.3,-248.59 745.02,-243.47 743.85,-250.37"/>
</g>
<!-- middlewares/authMiddleware.js&#45;&gt;utils/asyncHandler.js -->
<g id="edge36" class="edge">
<title>middlewares/authMiddleware.js&#45;&gt;utils/asyncHandler.js</title>
<path fill="none" stroke="#757575" d="M666.64,-216.5C687.03,-216.5 708.16,-216.5 727.65,-216.5"/>
<polygon fill="#757575" stroke="#757575" points="727.68,-220 737.68,-216.5 727.68,-213 727.68,-220"/>
</g>
<!-- middlewares/authMiddleware.js&#45;&gt;models/User.js -->
<g id="edge34" class="edge">
<title>middlewares/authMiddleware.js&#45;&gt;models/User.js</title>
<path fill="none" stroke="#757575" d="M664.84,-204.88C669.49,-202.5 673.92,-199.72 678,-196.5 709.57,-171.59 682.9,-138.99 714,-113.5 722.89,-106.21 733.82,-101.41 745.03,-98.28"/>
<polygon fill="#757575" stroke="#757575" points="745.98,-101.65 754.9,-95.94 744.36,-94.84 745.98,-101.65"/>
</g>
<!-- server.js -->
<g id="node26" class="node">
<title>server.js</title>
<path fill="none" stroke="#c6c5fe" d="M59.33,-166C59.33,-166 7.67,-166 7.67,-166 3.83,-166 0,-162.17 0,-158.33 0,-158.33 0,-150.67 0,-150.67 0,-146.83 3.83,-143 7.67,-143 7.67,-143 59.33,-143 59.33,-143 63.17,-143 67,-146.83 67,-150.67 67,-150.67 67,-158.33 67,-158.33 67,-162.17 63.17,-166 59.33,-166"/>
<text text-anchor="middle" x="33.5" y="-150.8" font-family="Arial" font-size="14.00" fill="#c6c5fe">server.js</text>
</g>
<!-- server.js&#45;&gt;app.js -->
<g id="edge48" class="edge">
<title>server.js&#45;&gt;app.js</title>
<path fill="none" stroke="#757575" d="M55.45,-166.12C72.27,-175.45 96.1,-188.66 114.87,-199.07"/>
<polygon fill="#757575" stroke="#757575" points="113.19,-202.14 123.63,-203.93 116.58,-196.02 113.19,-202.14"/>
</g>
<!-- server.js&#45;&gt;config/db.js -->
<g id="edge49" class="edge">
<title>server.js&#45;&gt;config/db.js</title>
<path fill="none" stroke="#757575" d="M67.21,-148.55C75.22,-147.1 83.99,-145.5 92.65,-143.93"/>
<polygon fill="#757575" stroke="#757575" points="93.51,-147.33 102.73,-142.1 92.26,-140.44 93.51,-147.33"/>
</g>
</g>
</svg>
